<?xml version="1.0" encoding="utf-8"?>
<!-- Generator: Adobe Illustrator 24.0.0, SVG Export Plug-In . SVG Version: 6.00 Build 0)  -->
<svg version="1.1" id="Layer_1" xmlns="http://www.w3.org/2000/svg" xmlns:xlink="http://www.w3.org/1999/xlink" x="0px" y="0px"
	 viewBox="0 0 304 74.7" style="enable-background:new 0 0 304 74.7;" xml:space="preserve">
<style type="text/css">
	.st0{clip-path:url(#SVGID_2_);}
	.st1{fill:#090502;}
	.st2{fill:#E8B35B;}
	.st3{fill:#E8B35B;stroke:#E8B35B;stroke-width:1.0278;stroke-miterlimit:10;}
	.st4{fill:#36261C;}
	.st5{fill:#030303;}
	.st6{fill:url(#SVGID_15_);}
	.st7{fill-rule:evenodd;clip-rule:evenodd;fill:#FF0000;}
	.st8{fill-rule:evenodd;clip-rule:evenodd;fill:#FFFFFF;}
	.st9{fill:#292C30;}
	.st10{fill:#FF0000;}
	.st11{fill:#FFFFFF;stroke:#000000;stroke-width:0.7983;stroke-miterlimit:10;}
	.st12{fill:#FFFFFF;stroke:#000000;stroke-miterlimit:10;}
	.st13{fill:#FF0000;stroke:#FF0000;stroke-miterlimit:10;}
	.st14{fill:none;stroke:#FF0000;stroke-width:5;stroke-miterlimit:10;}
	.st15{fill:#FF0000;stroke:#FF0000;stroke-width:1.0842;stroke-miterlimit:10;}
	.st16{fill:#FF0000;stroke:#FF0000;stroke-width:1.1736;stroke-miterlimit:10;}
	.st17{fill:#E8B35B;stroke:#E8B35B;stroke-width:1.1736;stroke-miterlimit:10;}
	.st18{fill:#111111;}
	.st19{fill:#595959;}
	.st20{clip-path:url(#SVGID_25_);}
	.st21{fill:url(#SVGID_28_);}
	.st22{clip-path:url(#SVGID_30_);}
	.st23{clip-path:url(#SVGID_34_);}
	.st24{fill:#E8B35B;stroke:#E8B35B;stroke-width:1.1506;stroke-miterlimit:10;}
	.st25{fill-rule:evenodd;clip-rule:evenodd;fill:#593125;}
	.st26{fill-rule:evenodd;clip-rule:evenodd;fill:#37251B;}
	.st27{fill-rule:evenodd;clip-rule:evenodd;fill:#AE7F57;}
	.st28{fill-rule:evenodd;clip-rule:evenodd;fill:#755341;}
	.st29{fill:#593125;}
	.st30{fill-rule:evenodd;clip-rule:evenodd;fill:#795235;}
	.st31{fill-rule:evenodd;clip-rule:evenodd;fill:#C5A486;}
	.st32{fill:#E8B35B;stroke:#E8B35B;stroke-width:0.8054;stroke-miterlimit:10;}
	.st33{fill-rule:evenodd;clip-rule:evenodd;fill:#E8B35B;}
	.st34{fill:none;stroke:#000000;stroke-miterlimit:10;}
	.st35{fill:#E8B35B;stroke:#E8B35B;stroke-width:1.7259;stroke-miterlimit:10;}
	.st36{fill:#FF0000;stroke:#FF0000;stroke-width:1.7259;stroke-miterlimit:10;}
	.st37{clip-path:url(#SVGID_48_);}
	.st38{opacity:0.7;fill:#1D1D1B;}
	.st39{fill:#E8B35B;stroke:#E8B35B;stroke-width:0.6837;stroke-miterlimit:10;}
	.st40{clip-path:url(#SVGID_54_);}
	.st41{fill:url(#SVGID_67_);}
	.st42{clip-path:url(#SVGID_69_);}
	.st43{fill:#F5F5F1;}
	.st44{fill:#E8B35B;stroke:#E8B35B;stroke-width:0.9435;stroke-miterlimit:10;}
	.st45{fill:url(#SVGID_74_);}
	.st46{clip-path:url(#SVGID_78_);}
	.st47{fill:url(#SVGID_83_);}
	.st48{clip-path:url(#SVGID_87_);}
	.st49{fill:#292929;}
	.st50{fill:none;}
</style>
<g>
	<g>
		<g>
			<polygon class="st4" points="90.1,3 90.1,33.3 81,33.3 81,12.2 46.1,25 11.2,12.2 11.2,33.3 2,33.3 2,3 10.7,3 46.5,16.2 82.2,3 
							"/>
			<path class="st4" d="M90.1,3v30.3H81V12.2L46.3,25L11.2,12.2v21.1H2V3h8.7l35.6,13.2L82.2,3H90.1"/>
		</g>
		<g>
			<path class="st4" d="M214.9,33.9H170v-7.7h43.6c2-0.6,3.2-1.2,4.5-2.5c1.2-1.2,1.9-3.9,1.9-4.4V3.5h8.1v15.9
				c0,3.9-2.4,7.8-3.9,9.3C222.4,30.6,219,33.9,214.9,33.9z"/>
		</g>
		<path class="st4" d="M156.4,26h-51.7V11.5h51.7V26z M159.6,3.6H103c-3.5,0-6.8,2.3-6.8,5.8v17.7c0,3.5,3.4,6.8,6.8,6.8h56.6
			c3.5,0,5.6-3.3,5.6-6.8V9.5C165.1,6,163,3.6,159.6,3.6L159.6,3.6z"/>
		<path class="st4" d="M293.3,26h-51.7V11.5h51.7V26z M296.4,3.6h-56.6c-3.5,0-6.8,2.3-6.8,5.8v17.7c0,3.5,3.4,6.8,6.8,6.8h56.6
			c3.5,0,5.6-3.3,5.6-6.8V9.5C302,6,299.9,3.6,296.4,3.6L296.4,3.6z"/>
	</g>
	<rect x="2" y="54.3" class="st2" width="93.3" height="1"/>
	<rect x="209" y="54.3" class="st2" width="93.3" height="1"/>
	<g>
		<g>
			<path class="st4" d="M123.7,58.9L123.7,58.9c0.1,1.7-0.5,3.1-1.6,4.1c-1.1,1-2.6,1.5-4.4,1.5c-1.9,0-3.4-0.7-4.6-2.1
				s-1.7-3.1-1.7-5.3v-2.8c0-2.2,0.6-3.9,1.7-5.3c1.2-1.4,2.7-2.1,4.6-2.1c1.9,0,3.3,0.5,4.4,1.5c1.1,1,1.7,2.3,1.6,4l0,0.1h-1.3
				c0-1.4-0.4-2.4-1.3-3.2c-0.8-0.8-2-1.2-3.5-1.2c-1.5,0-2.7,0.6-3.6,1.7c-0.9,1.2-1.4,2.6-1.4,4.4v2.8c0,1.8,0.5,3.3,1.4,4.5
				c0.9,1.2,2.1,1.7,3.6,1.7c1.5,0,2.6-0.4,3.5-1.1s1.3-1.8,1.3-3.3H123.7z"/>
			<path class="st4" d="M139.9,57.1c0,2.2-0.6,4-1.8,5.3s-2.8,2-4.9,2c-2,0-3.6-0.7-4.8-2c-1.2-1.4-1.8-3.1-1.8-5.3v-2.8
				c0-2.2,0.6-4,1.8-5.3c1.2-1.4,2.8-2.1,4.8-2.1c2,0,3.7,0.7,4.9,2.1c1.2,1.4,1.8,3.1,1.8,5.3V57.1z M138.5,54.3
				c0-1.8-0.5-3.3-1.4-4.5s-2.2-1.7-3.9-1.7c-1.6,0-2.9,0.6-3.8,1.7s-1.4,2.6-1.4,4.5v2.8c0,1.9,0.5,3.4,1.4,4.5s2.2,1.7,3.8,1.7
				c1.7,0,3-0.6,3.9-1.7c0.9-1.1,1.4-2.6,1.4-4.5V54.3z"/>
			<path class="st4" d="M152.7,56.3h-7.8v8h-1.4V47.2h10.4v1.2h-9v6.7h7.8V56.3z"/>
			<path class="st4" d="M166,56.3h-7.8v8h-1.4V47.2h10.4v1.2h-9v6.7h7.8V56.3z"/>
			<path class="st4" d="M179,56h-7.7v7.1h8.8v1.2h-10.3V47.2h10.2v1.2h-8.8v6.4h7.7V56z"/>
			<path class="st4" d="M192.2,56h-7.7v7.1h8.8v1.2h-10.3V47.2h10.2v1.2h-8.8v6.4h7.7V56z"/>
		</g>
	</g>
</g>
</svg>
